<svg width="282" height="626" viewBox="0 0 282 626" fill="none" xmlns="http://www.w3.org/2000/svg">
<path d="M69.9673 163.666C69.8772 163.462 69.768 163.176 69.6395 162.809C69.5761 162.356 69.4835 161.915 69.3618 161.485C69.305 160.97 69.2124 160.529 69.084 160.161C69.0139 159.771 68.9888 159.482 69.0088 159.296C69.0238 158.635 69.0496 157.612 69.0861 156.227C69.1811 154.82 69.2668 153.238 69.3434 151.48C69.4199 149.723 69.5065 147.872 69.6031 145.928C69.7647 143.9 69.8837 142.007 69.9603 140.25C70.0369 138.492 70.1226 136.91 70.2176 135.503C70.3125 134.096 70.3966 133.051 70.47 132.367C70.3599 132.35 70.1006 132.419 69.692 132.576C69.2834 132.732 69.0174 132.864 68.894 132.97C68.4137 133.273 67.5732 133.804 66.3726 134.562C65.2302 135.297 63.997 136.097 62.6729 136.961L58.8957 139.301C57.695 140.059 56.8837 140.578 56.4618 140.859L53.0494 138.232L71.1598 125.935L77.956 89.1873C78.4361 86.7986 79.3173 84.5841 80.5996 82.5437C81.8819 80.5034 83.3318 78.7267 84.9494 77.2135C86.5669 75.7003 88.1737 74.5488 89.7696 73.759C91.4239 72.9469 92.8048 72.597 93.9122 72.7093C95.0262 72.7595 95.7467 73.3478 96.0737 74.474C96.4073 75.5381 96.0881 77.2097 95.116 79.4888C94.1672 80.5076 93.4367 81.0554 92.9248 81.1322C92.4711 81.1867 92.1217 81.0523 91.8766 80.7291C91.6964 80.3213 91.5521 79.8402 91.4437 79.2858C91.3352 78.7314 91.1551 78.3237 90.9032 78.0625C89.9209 77.3064 88.9686 77.3134 88.0464 78.0837C87.1893 78.7694 86.3563 80.0119 85.5477 81.8113C84.7456 83.5486 83.9878 85.6563 83.2743 88.1344C82.5607 90.6124 81.9147 93.2434 81.3362 96.0274C80.7644 98.7491 80.2443 101.511 79.7759 104.312C79.3142 107.051 78.905 109.562 78.5483 111.844C78.25 114.103 78.0175 116.01 77.8509 117.563L77.5509 120.36C78.6783 120.286 79.9657 119.763 81.4132 118.792C82.9191 117.798 84.4449 116.618 85.9908 115.251C87.595 113.862 89.1734 112.454 90.7259 111.025C92.2851 109.534 93.7334 108.294 95.0709 107.306C96.4083 106.317 97.5631 105.726 98.5354 105.532C99.566 105.316 100.329 105.769 100.824 106.89L97.5953 111.166L78.427 126.281L76.681 128.469C76.6093 128.616 76.4577 129.508 76.226 131.147C76.0527 132.762 75.8461 134.689 75.6061 136.926C75.3661 139.163 75.1195 141.462 74.8662 143.824C74.678 146.101 74.533 147.974 74.4314 149.443C74.4165 150.104 74.5108 151.051 74.7143 152.284C74.9763 153.495 75.1407 154.833 75.2075 156.297C75.3327 157.739 75.2344 159.177 74.9127 160.611C74.656 161.961 73.9723 163.116 72.8617 164.078C72.1863 164.634 71.5801 164.807 71.0431 164.595C70.5644 164.361 70.2058 164.052 69.9673 163.666ZM105.864 146.794C104.651 145.054 104.049 142.841 104.057 140.156C104.072 137.41 104.392 134.427 105.017 131.208C105.642 127.989 106.445 124.672 107.427 121.257C108.409 117.842 109.29 114.584 110.071 111.485C110.858 108.323 111.417 105.457 111.749 102.887C112.087 100.254 111.918 98.1737 111.243 96.6446C110.882 95.8291 110.29 95.6088 109.466 95.9838C108.708 96.2743 107.848 96.7227 106.887 97.3288C105.992 97.8504 105.081 98.2589 104.153 98.5544C103.284 98.8274 102.56 98.5387 101.979 97.6883C102.064 97.4174 102.331 97.0173 102.78 96.488C103.177 95.9189 103.466 95.5698 103.648 95.4406C108.988 92.6215 113.302 91.5358 116.591 92.1836C119.945 92.7469 122.479 94.4285 124.193 97.2283C125.915 99.966 126.908 103.489 127.174 107.797C127.498 112.083 127.3 116.539 126.579 121.164C125.859 125.79 124.735 130.273 123.206 134.613C121.684 138.89 119.963 142.409 118.044 145.17C116.124 147.931 114.098 149.601 111.965 150.179C109.832 150.757 107.798 149.629 105.864 146.794ZM110.766 141.789C110.805 141.953 110.953 142.134 111.212 142.333C111.47 142.532 111.725 142.762 111.977 143.024C112.287 143.262 112.572 143.481 112.83 143.68C113.095 143.817 113.283 143.894 113.393 143.912C115.693 141.78 117.488 139.394 118.778 136.755C120.069 134.115 120.948 131.395 121.417 128.594C121.944 125.77 122.133 122.956 121.986 120.152C121.905 117.263 121.605 114.577 121.088 112.094C120.571 109.61 119.884 107.4 119.028 105.463C118.231 103.504 117.416 101.968 116.584 100.857C116.439 101.687 116.189 102.975 115.834 104.719C115.479 106.464 115.1 108.427 114.699 110.607C114.297 112.787 113.853 115.102 113.366 117.553C112.879 120.004 112.402 122.361 111.936 124.626C111.534 126.806 111.155 128.768 110.8 130.513C110.445 132.258 110.195 133.545 110.05 134.376C109.925 135.019 109.848 135.734 109.82 136.52C109.857 137.221 109.923 137.911 110.018 138.589C110.113 139.268 110.212 139.916 110.313 140.532C110.48 141.064 110.631 141.483 110.766 141.789ZM135.982 135.263C134.769 133.523 134.167 131.31 134.175 128.625C134.19 125.879 134.51 122.896 135.135 119.677C135.76 116.458 136.563 113.141 137.545 109.726C138.527 106.31 139.409 103.053 140.189 99.9536C140.976 96.792 141.535 93.926 141.867 91.3558C142.205 88.7234 142.036 86.6427 141.361 85.1136C141 84.298 140.408 84.0778 139.585 84.4528C138.826 84.7433 137.966 85.1916 137.006 85.7977C136.11 86.3194 135.199 86.7279 134.271 87.0233C133.403 87.2964 132.678 87.0077 132.097 86.1573C132.182 85.8864 132.449 85.4862 132.898 84.957C133.295 84.3879 133.584 84.0387 133.766 83.9095C139.106 81.0905 143.42 80.0048 146.709 80.6526C150.063 81.2159 152.597 82.8974 154.311 85.6972C156.033 88.4349 157.026 91.9578 157.292 96.2659C157.616 100.552 157.418 105.008 156.698 109.633C155.977 114.259 154.853 118.742 153.324 123.082C151.802 127.359 150.081 130.878 148.162 133.639C146.242 136.4 144.216 138.07 142.083 138.648C139.95 139.226 137.916 138.098 135.982 135.263ZM140.884 130.258C140.923 130.422 141.071 130.603 141.33 130.802C141.588 131.001 141.843 131.231 142.095 131.493C142.405 131.731 142.69 131.95 142.948 132.149C143.213 132.286 143.401 132.363 143.511 132.381C145.811 130.249 147.606 127.863 148.896 125.224C150.187 122.584 151.067 119.864 151.535 117.063C152.062 114.239 152.252 111.425 152.105 108.621C152.023 105.732 151.723 103.046 151.206 100.563C150.689 98.079 150.002 95.8687 149.146 93.9319C148.349 91.9727 147.534 90.4373 146.702 89.3257C146.557 90.1559 146.307 91.4435 145.952 93.1884C145.597 94.9333 145.218 96.8958 144.817 99.0757C144.415 101.256 143.971 103.571 143.484 106.022C142.997 108.473 142.52 110.83 142.054 113.095C141.652 115.275 141.273 117.237 140.918 118.982C140.563 120.727 140.313 122.014 140.168 122.845C140.043 123.488 139.967 124.203 139.938 124.989C139.975 125.69 140.041 126.379 140.136 127.058C140.231 127.737 140.33 128.384 140.431 129.001C140.598 129.533 140.749 129.952 140.884 130.258ZM160.321 125.945C159.774 124.784 159.546 122.994 159.638 120.575C159.736 118.094 160.068 115.255 160.635 112.059C161.26 108.84 162.074 105.43 163.076 101.828C164.136 98.2042 165.326 94.6798 166.645 91.2549C168.022 87.8076 169.486 84.5952 171.037 81.6179C172.652 78.556 174.322 76.0398 176.044 74.0693C177.773 72.0366 179.539 70.705 181.342 70.0744C183.152 69.3816 184.913 69.6608 186.626 70.9119L192.392 43.7652C192.477 43.4942 192.744 43.0941 193.192 42.5649C193.648 41.9734 193.963 41.6442 194.138 41.5771C194.371 41.4878 194.657 41.4382 194.993 41.4284C195.33 41.4186 195.635 41.451 195.906 41.5257C196.243 41.5159 196.519 41.5595 196.732 41.6566C196.946 41.7536 197.046 41.8643 197.032 41.9886L192.163 87.3844C191.796 90.8023 192.034 93.5419 192.877 95.603C193.719 97.6642 194.982 98.9387 196.664 99.4267C198.347 99.9147 200.376 99.5253 202.751 98.2585C205.19 96.9073 207.821 94.5593 210.643 91.2146C211.46 90.9017 211.796 91.1604 211.651 91.9906C211.512 92.7587 211.066 93.7939 210.31 95.0961C209.613 96.376 208.621 97.7988 207.334 99.3643C206.105 100.907 204.75 102.32 203.269 103.602C201.853 104.8 200.354 105.731 198.771 106.397C197.247 107.04 195.812 107.113 194.466 106.615C193.385 106.254 192.438 105.693 191.624 104.932C190.81 104.171 190.094 103.283 189.475 102.269C188.915 101.232 188.387 100.153 187.891 99.0313C187.454 97.8876 187.101 96.7415 186.833 95.5929C186.539 96.2416 186.041 97.2369 185.337 98.579C184.699 99.8365 183.952 101.314 183.099 103.012C182.252 104.647 181.365 106.387 180.44 108.231C179.521 110.013 178.635 111.752 177.781 113.45C176.934 115.085 176.159 116.574 175.455 117.916C174.758 119.196 174.237 120.14 173.892 120.749C172.901 122.678 171.75 124.281 170.438 125.558C169.125 126.835 167.798 127.73 166.455 128.244C165.171 128.736 163.96 128.813 162.821 128.474C161.74 128.113 160.907 127.27 160.321 125.945ZM165.224 120.939C165.262 121.103 165.382 121.296 165.582 121.517C165.788 121.676 166.024 121.824 166.29 121.961C166.562 122.036 166.84 122.049 167.125 121.999C167.469 121.927 167.8 121.711 168.118 121.351C171.225 117.956 173.824 114.339 175.915 110.499C178.064 106.637 179.883 102.723 181.372 98.7562C182.861 94.7894 184.123 90.8499 185.159 86.9376C186.201 82.9632 187.193 79.1864 188.137 75.6072C185.032 76.3789 182.288 77.6977 179.905 79.5635C177.587 81.3448 175.566 83.4892 173.841 85.9967C172.117 88.5042 170.674 91.2616 169.512 94.269C168.35 97.2764 167.434 100.339 166.763 103.456C166.1 106.51 165.631 109.58 165.356 112.665C165.146 115.665 165.102 118.423 165.224 120.939ZM67.2751 351.576C66.0843 351.198 65.2645 350.23 64.8158 348.674C64.4321 347.033 64.2009 345.274 64.1224 343.398C64.1089 341.436 64.1954 339.586 64.3821 337.846L64.802 333.93C64.8753 333.247 65.0512 331.869 65.3295 329.795C65.6145 327.66 65.962 325.203 66.372 322.424C66.7887 319.583 67.222 316.586 67.6721 313.435C68.1287 310.221 68.5621 307.224 68.9721 304.445C69.3888 301.604 69.7363 299.147 70.0146 297.074C70.3513 294.978 70.5563 293.589 70.6297 292.905C70.7297 291.973 70.903 290.357 71.1496 288.058C71.4546 285.736 71.7437 283.302 72.017 280.754C72.297 278.144 72.5311 275.7 72.7193 273.423C72.9659 271.124 73.1392 269.508 73.2392 268.576C74.1881 267.557 74.9969 266.801 75.6656 266.306C76.2759 265.834 76.8046 265.602 77.2515 265.61C77.7051 265.555 77.8853 265.963 77.792 266.833L69.6333 342.897C69.5867 343.332 69.6468 343.815 69.8136 344.347C70.0454 344.795 70.3423 345.158 70.7042 345.436C71.0661 345.715 71.5031 345.816 72.0151 345.739C72.5921 345.578 73.2024 345.106 73.8461 344.323L85.4698 330.666C85.6083 331.983 85.4192 333.486 84.9023 335.174C84.3855 336.861 83.6452 338.545 82.6814 340.225C81.7759 341.883 80.6795 343.494 79.3922 345.06C78.1048 346.625 76.7566 347.976 75.3475 349.111C73.945 350.185 72.5434 350.989 71.1425 351.526C69.7484 352 68.4592 352.017 67.2751 351.576ZM91.4393 339.196C90.2267 337.455 89.6245 335.243 89.6326 332.558C89.6474 329.811 89.9673 326.828 90.5924 323.609C91.2176 320.39 92.0211 317.073 93.0031 313.658C93.9851 310.243 94.8662 306.986 95.6464 303.886C96.4333 300.725 96.9926 297.859 97.3243 295.288C97.6626 292.656 97.494 290.575 96.8184 289.046C96.4581 288.231 95.866 288.01 95.0422 288.385C94.2834 288.676 93.4238 289.124 92.4632 289.73C91.5677 290.252 90.6563 290.661 89.7291 290.956C88.8602 291.229 88.1356 290.94 87.5551 290.09C87.6402 289.819 87.907 289.419 88.3555 288.89C88.7524 288.321 89.0417 287.971 89.2235 287.842C94.5633 285.023 98.8776 283.937 102.166 284.585C105.52 285.149 108.054 286.83 109.769 289.63C111.49 292.368 112.484 295.891 112.749 300.199C113.073 304.484 112.875 308.94 112.155 313.566C111.435 318.192 110.311 322.675 108.782 327.014C107.259 331.292 105.539 334.811 103.619 337.572C101.7 340.333 99.6739 342.003 97.541 342.581C95.408 343.159 93.3741 342.031 91.4393 339.196ZM96.342 334.19C96.3803 334.355 96.5288 334.536 96.7873 334.735C97.0458 334.934 97.301 335.164 97.5528 335.425C97.8631 335.664 98.1474 335.883 98.4059 336.082C98.6711 336.219 98.8588 336.296 98.9688 336.313C101.268 334.181 103.064 331.796 104.354 329.156C105.645 326.517 106.524 323.797 106.993 320.995C107.519 318.172 107.709 315.358 107.562 312.554C107.48 309.665 107.181 306.979 106.663 304.495C106.146 302.012 105.46 299.801 104.604 297.865C103.807 295.905 102.992 294.37 102.16 293.258C102.015 294.089 101.765 295.376 101.41 297.121C101.054 298.866 100.676 300.828 100.274 303.008C99.8726 305.188 99.4283 307.504 98.9415 309.955C98.4548 312.405 97.978 314.763 97.5112 317.027C97.1095 319.207 96.7311 321.17 96.376 322.915C96.021 324.66 95.7709 325.947 95.6259 326.777C95.5009 327.421 95.4242 328.136 95.3959 328.921C95.4327 329.622 95.4986 330.312 95.5937 330.991C95.6888 331.67 95.7873 332.317 95.8891 332.934C96.0559 333.466 96.2069 333.885 96.342 334.19ZM122.493 300.938C122.371 300.507 122.085 299.783 121.635 298.763L120.216 295.552C119.721 294.431 119.215 293.403 118.7 292.468C118.25 291.448 117.934 290.735 117.754 290.327C118.003 289.576 118.435 288.934 119.052 288.4C119.669 287.866 120.296 287.507 120.931 287.323C121.573 287.077 122.169 286.998 122.72 287.085C123.328 287.15 123.716 287.449 123.883 287.981L132.836 312.531L147.856 267.986L148.364 267.166C148.768 266.535 149.197 265.924 149.652 265.332C150.173 264.656 150.712 264.062 151.271 263.55C151.829 263.039 152.325 262.849 152.759 262.981C152.849 263.184 152.848 263.721 152.754 264.591C152.668 265.399 152.553 265.95 152.409 266.243C152.239 266.785 151.733 268.111 150.891 270.221C150.107 272.309 149.245 274.605 148.305 277.111C147.371 279.554 146.509 281.85 145.719 284C144.935 286.088 144.458 287.403 144.288 287.945C144.118 288.487 143.801 289.621 143.336 291.349C142.935 292.992 142.476 294.926 141.958 297.15C141.439 299.375 140.878 301.735 140.275 304.23C139.671 306.726 139.081 309.097 138.504 311.344C137.986 313.569 137.526 315.503 137.126 317.146C136.726 318.789 136.47 319.87 136.359 320.389C136.162 321.18 135.871 322.066 135.486 323.048C135.159 324.007 134.722 324.949 134.175 325.873C133.635 326.736 132.965 327.499 132.167 328.162C131.426 328.803 130.577 329.158 129.618 329.227C129.471 328.509 129.196 327.422 128.792 325.968C128.453 324.429 128.047 322.737 127.573 320.892C127.099 319.048 126.61 317.09 126.104 315.019C125.599 312.948 125.109 310.99 124.635 309.146C124.161 307.301 123.723 305.651 123.319 304.197C122.974 302.72 122.698 301.634 122.493 300.938ZM167.785 313.095C165.554 311.983 163.855 310.339 162.689 308.163C161.588 305.903 160.828 303.333 160.41 300.455C160.026 300.899 159.464 301.442 158.724 302.083C157.983 302.724 157.22 303.314 156.435 303.853C155.708 304.37 154.987 304.825 154.274 305.217C153.567 305.548 153.051 305.655 152.728 305.541C152.463 305.404 152.418 305.034 152.595 304.43C152.837 303.741 153.488 302.628 154.548 301.09C154.685 300.858 155.079 300.32 155.729 299.476C156.438 298.608 157.179 297.699 157.953 296.747C158.733 295.733 159.449 294.804 160.099 293.959C160.756 293.052 161.153 292.483 161.289 292.252C162.098 290.452 162.661 288.598 162.978 286.689C163.353 284.758 163.647 282.798 163.86 280.809C164.138 278.736 164.472 276.672 164.86 274.616C165.249 272.56 165.886 270.528 166.773 268.52C167.289 267.37 168.177 265.867 169.44 264.013C170.767 262.075 172.204 260.154 173.752 258.251C175.358 256.325 176.947 254.554 178.519 252.939C180.157 251.24 181.514 250.064 182.592 249.414C183.727 248.74 184.485 248.718 184.866 249.347C185.304 249.954 185.138 251.508 184.366 254.008C183.43 256.988 182.152 260.04 180.529 263.164C178.972 266.204 177.356 269.266 175.682 272.35C174.014 275.372 172.405 278.372 170.855 281.349C169.362 284.304 168.217 287.156 167.418 289.905C166.98 291.384 166.654 293.118 166.44 295.106C166.234 297.033 166.231 298.881 166.433 300.651C166.635 302.421 167.117 303.935 167.877 305.193C168.644 306.389 169.812 306.985 171.38 306.981C173.167 307.012 175.015 306.483 176.923 305.395C178.831 304.307 180.717 302.9 182.581 301.173C184.504 299.424 186.366 297.459 188.167 295.28C189.974 293.039 191.669 290.811 193.249 288.597C194.83 286.382 196.258 284.286 197.534 282.308C198.816 280.268 199.897 278.543 200.776 277.134L202.084 278.242C202.453 278.458 202.077 279.615 200.956 281.713C199.894 283.788 198.367 286.28 196.376 289.187C194.45 292.01 192.197 295.018 189.615 298.212C187.034 301.405 184.405 304.259 181.729 306.773C179.111 309.265 176.556 311.167 174.064 312.478C171.631 313.768 169.538 313.973 167.785 313.095ZM169.158 273.686C169.066 274.019 168.948 274.6 168.803 275.431C168.723 276.176 168.636 276.984 168.543 277.854C168.449 278.724 168.363 279.532 168.283 280.278C168.261 281.001 168.263 281.507 168.288 281.795C170.522 277.662 172.663 273.357 174.711 268.878C176.759 264.399 178.459 260.024 179.813 255.751C178.417 256.762 177.108 258.008 175.886 259.489C174.729 260.886 173.697 262.413 172.792 264.071C171.893 265.666 171.13 267.299 170.503 268.969C169.935 270.617 169.486 272.189 169.158 273.686ZM50.8911 591.21C49.8104 590.849 48.984 589.943 48.4118 588.494C47.833 587.107 47.4134 585.539 47.1531 583.791C46.8928 582.044 46.7459 580.282 46.7124 578.507C46.7373 576.71 46.7805 575.263 46.8421 574.167C47.1819 568.912 47.7009 563.291 48.3991 557.303C49.1491 551.354 50.3043 545.281 51.8648 539.082C53.4319 532.82 55.4685 526.618 57.9745 520.474C60.5456 514.245 63.7897 508.266 67.7067 502.535C69.7627 499.543 71.737 496.791 73.6297 494.279C75.5874 491.682 77.5801 489.28 79.6079 487.073C81.694 484.845 83.8735 482.788 86.1465 480.905C88.4844 478.937 91.0584 477.118 93.8684 475.446C96.4382 473.926 98.3052 473.479 99.4693 474.106C100.692 474.711 101.387 476.053 101.556 478.134C101.731 480.153 101.451 482.763 100.716 485.964C99.9876 489.103 98.9539 492.479 97.615 496.09C96.2828 499.639 94.7238 503.216 92.938 506.82C91.2105 510.401 89.4063 513.654 87.5254 516.579C85.6445 519.504 83.7585 521.954 81.8674 523.93C79.9831 525.843 78.2471 526.895 76.6594 527.086C76.4726 526.74 76.8452 525.614 77.7773 523.708C78.7094 521.802 79.915 519.433 81.394 516.602C82.9314 513.749 84.583 510.614 86.3488 507.197C88.1797 503.695 89.8388 500.229 91.3261 496.8C92.8718 493.347 94.119 490.069 95.0676 486.965C96.0747 483.838 96.523 481.223 96.4128 479.12C96.3443 478.193 95.8823 477.803 95.0268 477.952C94.1713 478.101 93.2049 478.501 92.1276 479.152C91.1087 479.78 90.1123 480.459 89.1384 481.19C88.1645 481.92 87.5541 482.392 87.3073 482.606C82.6514 486.355 78.4791 490.813 74.7906 495.979C71.167 501.061 67.9763 506.544 65.2184 512.427C62.4672 518.247 60.1462 524.231 58.2556 530.378C56.4233 536.502 54.9512 542.399 53.8393 548.069C52.7207 553.801 51.9532 559.13 51.5367 564.057C51.1135 569.046 51.0297 573.219 51.2851 576.578C51.5339 579.999 52.0544 582.451 52.8467 583.936C53.6324 585.482 54.6714 585.71 55.9638 584.619C56.0872 584.512 56.3473 584.174 56.7442 583.605C57.1994 583.014 57.4954 582.603 57.6321 582.372C58.7292 579.449 59.7071 576.333 60.5657 573.025C61.4243 569.716 62.1503 566.34 62.7437 562.895C63.3955 559.427 63.9339 555.973 64.3588 552.533C64.7838 549.093 65.1404 545.768 65.4286 542.559C65.7102 539.412 65.9168 536.443 66.0483 533.651C66.2382 530.837 66.3914 528.365 66.5079 526.235C66.3795 525.867 66.3202 525.115 66.3301 523.979C66.3984 522.82 66.4767 521.569 66.5649 520.224C66.7116 518.857 66.8841 517.51 67.0824 516.182C67.3458 514.77 67.6601 513.667 68.0252 512.872C68.3904 512.076 68.7965 511.682 69.2434 511.69C69.6904 511.698 70.2066 512.364 70.7921 513.689C70.8221 514.453 70.7889 515.806 70.6923 517.75C70.6542 519.672 70.5993 521.748 70.5278 523.981C70.4629 526.151 70.3822 528.208 70.2857 530.152C70.1891 532.096 70.0975 533.472 70.0108 534.279C69.9759 535.127 69.8751 536.328 69.7085 537.881C69.6068 539.35 69.4627 540.955 69.2761 542.695L68.1263 553.415C67.953 555.03 67.7738 556.44 67.5888 557.643C67.4555 558.886 67.3397 559.705 67.2413 560.1C67.1813 560.659 66.9187 561.803 66.4536 563.53C66.0402 565.297 65.5875 567.169 65.0957 569.145C64.5972 571.183 64.0796 573.139 63.5427 575.014C63.0059 576.888 62.6099 578.231 62.3548 579.044C61.8646 580.483 61.2252 582.009 60.4365 583.622C59.6478 585.235 58.7365 586.686 57.7027 587.976C56.7272 589.243 55.6457 590.194 54.4584 590.827C53.3227 591.5 52.1336 591.628 50.8911 591.21ZM102.406 525.005C101.518 522.842 101.159 520.447 101.329 517.819C101.557 515.17 101.997 512.379 102.647 509.449C102.799 508.556 103.084 507.196 103.505 505.366C103.925 503.537 104.394 501.51 104.912 499.285C105.431 497.061 105.992 494.7 106.595 492.205C107.199 489.709 107.76 487.349 108.278 485.125C108.797 482.9 109.259 480.935 109.666 479.23C110.138 477.441 110.476 476.119 110.679 475.267C111.426 472.478 112.159 470.082 112.877 468.079C113.661 465.991 114.573 464.271 115.614 462.919C116.712 461.545 118.024 460.536 119.548 459.893C121.131 459.228 123.101 458.861 125.459 458.792C125.745 458.743 126.039 458.868 126.343 459.169C126.653 459.408 126.827 459.609 126.865 459.773C126.895 460.537 126.966 461.701 127.078 463.267C127.249 464.811 127.421 466.592 127.597 468.611C127.779 470.567 127.947 472.648 128.102 474.853C128.323 476.974 128.521 479.043 128.696 481.062C128.878 483.018 129.025 484.78 129.137 486.346C129.307 487.89 129.436 489.032 129.525 489.773C129.927 493.85 130.677 496.512 131.774 497.761C132.878 498.947 134.157 499.292 135.609 498.795C137.062 498.299 138.604 497.232 140.234 495.594C141.93 493.872 143.6 492.131 145.245 490.369C146.896 488.545 148.439 486.941 149.875 485.557C151.31 484.173 152.494 483.571 153.427 483.75C153.3 484.931 152.914 486.181 152.269 487.501C151.624 488.82 150.868 490.123 150.003 491.407C149.202 492.608 148.321 493.78 147.359 494.923C146.397 496.066 145.506 497.062 144.687 497.912C141.172 501.463 138.299 503.725 136.068 504.698C133.895 505.649 132.113 505.825 130.722 505.225C129.331 504.626 128.278 503.479 127.564 501.786C126.851 500.093 126.227 498.335 125.695 496.513C125.222 494.668 124.721 493.072 124.194 491.724C123.732 490.292 123.057 489.537 122.17 489.46C121.908 490.335 121.379 491.878 120.582 494.09C119.843 496.28 119.033 498.616 118.151 501.099C117.269 503.582 116.429 505.93 115.632 508.142C114.835 510.354 114.277 511.909 113.957 512.806C113.807 513.161 113.481 513.852 112.979 514.879C112.535 515.883 111.965 517.025 111.268 518.305C110.578 519.523 109.8 520.774 108.934 522.059C108.134 523.259 107.328 524.253 106.516 525.041C105.697 525.89 104.918 526.367 104.179 526.471C103.44 526.576 102.849 526.087 102.406 525.005ZM109.908 495.764C109.711 496.554 109.477 497.955 109.205 499.966C108.992 501.954 108.765 504.067 108.525 506.304C108.285 508.542 108.059 510.654 107.845 512.643C107.69 514.609 107.628 515.974 107.658 516.737C110.054 512.661 112.303 508.136 114.404 503.16C116.511 498.122 118.224 493.116 119.541 488.143C120.923 483.084 121.773 478.29 122.091 473.758C122.416 469.164 121.994 465.274 120.824 462.086C119.625 464.393 118.432 467.174 117.243 470.43C116.054 473.686 114.975 476.959 114.007 480.25C113.045 483.479 112.187 486.519 111.433 489.369C110.745 492.136 110.236 494.267 109.908 495.764ZM151.638 506.693C150.484 509.101 149.586 510.428 148.944 510.674C148.295 510.982 147.814 510.51 147.5 509.26C147.238 508.049 147.098 506.226 147.079 503.79C147.119 501.331 147.247 498.571 147.464 495.508C147.739 492.423 148.089 489.161 148.514 485.72C148.939 482.28 149.38 478.953 149.836 475.739C150.351 472.503 150.866 469.535 151.379 466.835C151.899 464.074 152.356 461.903 152.749 460.322C153.208 458.656 153.59 457.706 153.895 457.47C154.2 457.234 154.402 457.961 154.5 459.651C156.528 457.445 158.692 455.276 160.991 453.144C163.298 450.95 165.636 448.982 168.005 447.24C170.44 445.414 172.838 443.93 175.2 442.788C177.619 441.623 179.901 440.958 182.046 440.792C182.193 441.511 182.122 442.432 181.834 443.555C181.545 444.679 180.918 445.574 179.95 446.243C179.036 446.414 177.821 446.79 176.303 447.371C174.786 447.952 173.167 448.691 171.448 449.587C169.728 450.484 167.992 451.536 166.24 452.743C164.487 453.951 162.86 455.289 161.359 456.757C159.924 458.141 158.698 459.653 157.683 461.293C156.732 462.849 156.164 464.497 155.977 466.237L151.638 506.693ZM210.068 541.172C208.752 539.352 207.686 537.287 206.87 534.977C206.048 532.73 205.426 530.435 205.006 528.093C204.585 525.751 204.356 523.456 204.317 521.206C204.337 518.934 204.524 516.925 204.879 515.18C204.754 511.653 203.696 509.257 201.704 507.994C199.771 506.708 197.402 506.095 194.597 506.156C191.844 506.257 188.849 506.777 185.614 507.718C182.437 508.636 179.542 509.536 176.929 510.418C176.69 510.032 176.79 509.368 177.226 508.427C177.663 507.485 178.177 506.871 178.767 506.585C180.603 505.644 182.51 504.824 184.488 504.127C186.459 503.491 188.391 502.96 190.284 502.533C192.235 502.084 194.118 501.751 195.933 501.533C197.799 501.355 199.548 501.221 201.181 501.132C201.634 498.992 201.91 496.682 202.008 494.201C202.107 491.72 202.114 489.304 202.03 486.952C201.953 484.538 201.805 482.271 201.584 480.151C201.422 478.008 201.253 476.196 201.076 474.714C199.997 475.902 199.083 477.116 198.335 478.356C197.586 479.596 196.834 480.867 196.079 482.169C195.33 483.409 194.552 484.661 193.745 485.923C192.938 487.186 191.969 488.391 190.838 489.539C188.324 492.11 186.425 493.374 185.143 493.328C183.867 493.221 183.076 492.242 182.771 490.393C182.524 488.521 182.658 485.967 183.173 482.73C183.746 479.472 184.599 475.957 185.731 472.186C186.863 468.416 188.196 464.598 189.73 460.733C191.329 456.784 192.998 453.225 194.737 450.056C196.477 446.888 198.208 444.318 199.93 442.347C201.718 440.292 203.37 439.243 204.885 439.199C204.989 439.278 205.017 439.536 204.971 439.971C204.924 440.406 204.836 440.708 204.706 440.877C204.354 441.548 203.477 443.194 202.077 445.816C200.734 448.416 199.2 451.506 197.472 455.088C195.751 458.607 194.007 462.344 192.24 466.298C190.479 470.19 189.033 473.753 187.903 476.986C186.773 480.22 186.127 482.851 185.965 484.879C185.862 486.885 186.581 487.742 188.124 487.449C190.169 486.13 191.971 484.457 193.532 482.429C195.158 480.317 196.58 478.014 197.799 475.522C199.018 473.029 200.053 470.428 200.903 467.719C201.812 464.987 202.571 462.342 203.181 459.785C203.798 457.165 204.281 454.745 204.631 452.525C205.047 450.221 205.37 448.25 205.602 446.612C206 445.506 206.705 444.67 207.718 444.103C208.73 443.537 209.599 443.264 210.324 443.284C210.244 444.03 210.088 445.222 209.857 446.86C209.683 448.476 209.487 450.309 209.267 452.36C209.054 454.348 208.798 456.472 208.499 458.732C208.259 460.969 208.03 463.113 207.81 465.164C207.655 467.13 207.491 468.921 207.317 470.537C207.144 472.152 207.046 473.322 207.025 474.045C206.938 474.853 206.863 476.074 206.8 477.707C206.802 479.256 206.809 481.011 206.823 482.972C206.843 484.871 206.853 486.864 206.853 488.949C206.905 491.075 206.971 493.076 207.049 494.953C207.186 496.807 207.346 498.444 207.53 499.864C207.765 501.323 208.018 502.358 208.288 502.97C209.157 504.783 210.431 506.47 212.111 508.032C213.842 509.633 215.57 511.266 217.295 512.93C219.013 514.656 220.552 516.48 221.913 518.402C223.274 520.324 224.019 522.512 224.148 524.966C224.276 527.419 223.613 530.206 222.159 533.325C220.699 536.506 218.012 540.157 214.1 544.276C213.88 544.242 213.563 544.065 213.15 543.747C212.788 543.468 212.371 543.181 211.899 542.885C211.485 542.566 211.101 542.237 210.746 541.896C210.39 541.555 210.164 541.314 210.068 541.172ZM210.401 523.972C210.51 524.526 210.772 525.468 211.189 526.798L212.508 530.942C212.964 532.436 213.403 533.817 213.827 535.085C214.244 536.415 214.568 537.304 214.8 537.751C215.627 538.388 216.253 538.298 216.676 537.48C217.158 536.64 217.463 535.361 217.592 533.643C217.72 531.926 217.655 529.925 217.396 527.64C217.137 525.355 216.652 523.098 215.939 520.868C215.221 518.7 214.291 516.672 213.15 514.785C212.009 512.898 210.62 511.493 208.984 510.57C208.912 510.716 208.857 510.976 208.817 511.349C208.77 511.784 208.769 512.052 208.814 512.154C208.909 512.833 209.03 513.8 209.175 515.055L209.61 518.822C209.756 520.077 209.888 521.188 210.008 522.155C210.18 523.162 210.311 523.768 210.401 523.972Z" fill="white"/>
</svg>
